<svg id="Layer_35" enable-background="new 0 0 64 64" height="512" viewBox="0 0 64 64" width="512" xmlns="http://www.w3.org/2000/svg" xmlns:xlink="http://www.w3.org/1999/xlink"><linearGradient id="SVGID_1_" gradientUnits="userSpaceOnUse" x1="32" x2="32" y1="63" y2="1"><stop offset="0" stop-color="#9f2fff"/><stop offset="1" stop-color="#0bb1d3"/></linearGradient><path d="m55.859 41h-6.859v-1c0-1.092-.593-2.041-1.468-2.565l7.662-12.259c1.181-1.89 1.806-4.068 1.806-6.296 0-6.551-5.329-11.88-11.88-11.88h-.24-14.064c-.414-1.161-1.514-2-2.816-2h-3.101c-.464-2.279-2.484-4-4.899-4s-4.435 1.721-4.899 4h-3.101c-1.302 0-2.402.839-2.816 2h-3.184c-2.757 0-5 2.243-5 5v40c0 2.757 2.243 5 5 5h19v2h4.101c.465 2.279 2.484 4 4.899 4s4.434-1.721 4.899-4h10.202c.465 2.279 2.484 4 4.899 4s4.434-1.721 4.899-4h4.101v-11.303l-2.98-4.471c-.93-1.393-2.485-2.226-4.161-2.226zm-30.859-1v11h-18v-38h2.184c.414 1.161 1.514 2 2.816 2h16c1.302 0 2.402-.839 2.816-2h2.184v24h-5c-1.654 0-3 1.346-3 3zm10-14.513 2 3.2v8.313h-2zm4 6.4 3.196 5.113h-3.196zm6.12-22.887c5.448 0 9.88 4.432 9.88 9.88 0 1.854-.52 3.664-1.502 5.236l-7.816 12.506c-.296.474-1.067.474-1.363 0l-7.816-12.506c-.983-1.572-1.503-3.383-1.503-5.236 0-5.448 4.432-9.88 9.88-9.88zm-10.209 3.441c-.244-.83-1.003-1.441-1.911-1.441h-2v-2h7.294c-1.35.903-2.5 2.078-3.383 3.441zm-23.911-4.441c0-.551.449-1 1-1h5v-1c0-1.654 1.346-3 3-3s3 1.346 3 3v1h5c.551 0 1 .449 1 1v4c0 .551-.449 1-1 1h-16c-.551 0-1-.449-1-1zm-5 47c-1.654 0-3-1.346-3-3v-40c0-1.654 1.346-3 3-3h3v2h-2c-1.103 0-2 .897-2 2v38c0 1.103.897 2 2 2h18v2zm28 6c-1.654 0-3-1.346-3-3s1.346-3 3-3 3 1.346 3 3-1.346 3-3 3zm0-8c-2.414 0-4.434 1.721-4.899 4h-2.101v-17c0-.551.449-1 1-1h18c.551 0 1 .449 1 1v17h-8.101c-.465-2.279-2.485-4-4.899-4zm20 8c-1.654 0-3-1.346-3-3s1.346-3 3-3 3 1.346 3 3-1.346 3-3 3zm4.899-4c-.465-2.279-2.484-4-4.899-4s-4.434 1.721-4.899 4h-.101v-14h6.859c1.005 0 1.938.5 2.496 1.336l.443.664h-2.798c-1.654 0-3 1.346-3 3s1.346 3 3 3h5v6zm2.101-8h-5c-.551 0-1-.449-1-1s.449-1 1-1h4.132l.868 1.303zm-16-22c4.411 0 8-3.589 8-8s-3.589-8-8-8-8 3.589-8 8 3.589 8 8 8zm0-14c3.309 0 6 2.691 6 6s-2.691 6-6 6-6-2.691-6-6 2.691-6 6-6zm0 10v-2c1.103 0 2-.897 2-2h2c0 2.206-1.794 4-4 4zm-30-12h-2v-2h2zm12 0h-2v-2h2zm4 21v-12c0-1.654-1.346-3-3-3h-16c-1.654 0-3 1.346-3 3v12c0 1.654 1.346 3 3 3h16c1.654 0 3-1.346 3-3zm-14-13h6v4h-6zm-6 13v-12c0-.551.449-1 1-1h3v6h10v-6h3c.551 0 1 .449 1 1v12c0 .551-.449 1-1 1h-16c-.551 0-1-.449-1-1zm-2 5h14v2h-14zm0 4h14v2h-14zm8 4h2v2h-2zm4 0h2v2h-2zm-8 0h2v2h-2zm32-2h-2v-2h2zm-10-2h2v2h-2zm6 2h-2v-2h2zm-12 4h2v2h-2zm0-4h2v2h-2zm0 8h2v2h-2z" fill="url(#SVGID_1_)"/></svg>