<svg height="512" viewBox="0 0 64 64" width="512" xmlns="http://www.w3.org/2000/svg" xmlns:xlink="http://www.w3.org/1999/xlink"><linearGradient id="linear-gradient" gradientUnits="userSpaceOnUse" x1="1.037" x2="66.961" y1="62.963" y2="-2.961"><stop offset="0" stop-color="#003f8a"/><stop offset=".518" stop-color="#00d7df"/><stop offset="1" stop-color="#006df0"/></linearGradient><linearGradient id="linear-gradient-2" x1="9.037" x2="74.961" xlink:href="#linear-gradient" y1="70.963" y2="5.039"/><linearGradient id="linear-gradient-3" x1="14.787" x2="80.711" xlink:href="#linear-gradient" y1="76.713" y2="10.789"/><linearGradient id="linear-gradient-4" x1="16.787" x2="82.711" xlink:href="#linear-gradient" y1="78.713" y2="12.789"/><linearGradient id="linear-gradient-5" x1="19.287" x2="85.211" xlink:href="#linear-gradient" y1="81.213" y2="15.289"/><linearGradient id="linear-gradient-6" x1="10.787" x2="76.711" xlink:href="#linear-gradient" y1="72.713" y2="6.789"/><g id="Credit_card" data-name="Credit card"><path d="m58 14h-52a5.006 5.006 0 0 0 -5 5v26a5.006 5.006 0 0 0 5 5h52a5.006 5.006 0 0 0 5-5v-26a5.006 5.006 0 0 0 -5-5zm-52 2h52a3 3 0 0 1 3 3h-58a3 3 0 0 1 3-3zm-3 5h58v5h-58zm55 27h-52a3 3 0 0 1 -3-3v-17h58v17a3 3 0 0 1 -3 3z" fill="url(#linear-gradient)"/><path d="m58 30h-22a1 1 0 0 0 -1 1v4a1 1 0 0 0 1 1h22a1 1 0 0 0 1-1v-4a1 1 0 0 0 -1-1zm-1 4h-20v-2h20z" fill="url(#linear-gradient-2)"/><path d="m58 37h-9a1 1 0 0 0 0 2h9a1 1 0 0 0 0-2z" fill="url(#linear-gradient-3)"/><path d="m58 40h-7a1 1 0 0 0 0 2h7a1 1 0 0 0 0-2z" fill="url(#linear-gradient-4)"/><path d="m58 43h-3a1 1 0 0 0 0 2h3a1 1 0 0 0 0-2z" fill="url(#linear-gradient-5)"/><path d="m46 37h-1a1 1 0 0 0 0 2h1a1 1 0 0 0 0-2z" fill="url(#linear-gradient-6)"/></g></svg>